<mxfile host="app.diagrams.net" modified="2024-02-12T06:25:18.877Z" agent="Mozilla/5.0 (Windows NT 10.0; Win64; x64) AppleWebKit/537.36 (KHTML, like Gecko) Chrome/121.0.0.0 Safari/537.36" version="23.1.2" etag="q9oM8Is9K-HJ5avVrFEw" type="github">
  <diagram name="Page-1" id="Terp5wxSV8DLfJ8DKOb7">
    <mxGraphModel>
      <root>
        <mxCell id="0" />
        <mxCell id="1" parent="0" />
      </root>
    </mxGraphModel>
  </diagram>
</mxfile>
